<svg xmlns="http://www.w3.org/2000/svg" width="160.1" height="227.882" viewBox="0 0 160.1 227.882">
  <g id="Grupo_1" data-name="Grupo 1" transform="translate(-540 948)">
    <g id="thumbnail" transform="translate(540 -695.998)">
      <path id="Caminho_1" data-name="Caminho 1" d="M0-227.5C0-204.5.1-203,1.8-203a7.525,7.525,0,0,0,3.6-1.3c1.8-1.3,1.7-1.6-.4-7.5a34.558,34.558,0,0,1,1.8-27.4c3.2-6.6,5.6-8.8,7.5-6.9.7.7.1,2.4-1.6,5a30.061,30.061,0,0,0-5.3,20.2c.5,5.4,3.8,13.9,5.2,13.9.4,0,3.7-2.1,7.5-4.6C26-215.5,32-221.4,32-223.2c0-.3-1.3-.8-2.9-1.1a17.786,17.786,0,0,1-6.3-3.6c-3.1-2.8-3.3-3.3-3.3-9.5,0-8.6,1.1-9.7,7-6.8,5.4,2.6,8.5,7.2,8.6,12.7l.1,4,1.8-4a30.866,30.866,0,0,0,2.5-8.5,44.787,44.787,0,0,1,1.6-6.9c.9-2.2,1.1-2.3,2.6-.8s1.5,2.2,0,9.2a52.483,52.483,0,0,1-11.6,22.9l-3.6,3.9,8-.5c9.3-.5,14.8-2.9,21.2-9,3.9-3.8,6.3-4.3,6.3-1.3,0,.7-2.2,3.3-4.9,5.8l-5,4.4,3.1,1.4c4.3,1.9,6.9,5.8,7.5,11.2s-.3,6.1-6.5,5.2c-5.5-.8-12.2-6.7-12.2-10.7v-2.5l-11.7.2c-11.1.1-12.2.3-17.9,3.2a85.625,85.625,0,0,1-11.2,4.8L0-197.8v34.4c0,30.1.2,34.3,1.5,33.8q1.5-.6,1.5-4.8c0-10.5,5.4-36.4,8.6-41.4,3.4-5.1,5-1.2,2.3,5.7-2.6,6.9-2.4,7.4,1.4,5.1,3.2-2,9-2.6,13.5-1.4,3.8,1.1,2.2,7.3-3.3,12.4-2,1.9-3.7,2.5-7.3,2.5a28.3,28.3,0,0,1-6.9-.8c-2-.7-2.2-.4-2.8,5.5a60.406,60.406,0,0,0-.3,10.1l.3,3.7,6-4.8c6.7-5.5,13-13,19.2-23,4.7-7.5,5.1-9.2,2.5-9.2-3.2,0-8.5-3.6-10.4-7.1-2.3-4.2-2.5-12.7-.3-13.5,2.1-.9,5.6.2,9.6,2.8a12.916,12.916,0,0,1,5,7.2c.9,2.7,1.9,4.3,2.3,3.7a2.536,2.536,0,0,1,1.7-1.1c2.4,0,1.8,3.5-2.1,11.1a101.519,101.519,0,0,1-14.8,22.6L22.8-139h7.6c6.6,0,16.6-1.5,16.6-2.6,0-.1-1.2-2.5-2.6-5.1-1.9-3.5-2.4-5.7-2-8.2.6-4.1,5.1-11.1,7-11.1,1.8,0,6.4,5.5,7.2,8.6.7,2.6.1,7.9-1.1,10.6-.7,1.7-.5,1.7,2.6.4,3.2-1.3,3.4-1.7,3.7-7l.3-5.6,20.3-.2,20.4-.3-3.2-3.7c-2.4-2.9-4.4-4.1-8.9-5.3a62,62,0,0,1-9.6-3.4l-3.8-2-1.7,3c-2.7,4.5-7.5,6.5-13.3,5.3-3.9-.7-4.9-1.3-5.1-3.2-.5-3.4,6.6-10.2,10.6-10.2h3.1l-3-5.6c-1.6-3.1-2.6-6-2.3-6.5,1.2-2,3.2-.7,4.9,3.1,2.5,5.6,9.1,11.3,15.9,13.9,3.1,1.1,5.9,2.1,6.1,2.1s-.8-2.6-2.2-5.8c-4.4-9.4-4.4-28.2-.1-29,1.5-.3,1.6.9,1.2,9.5l-.5,9.8,1.9-4c2.1-4.4,4.8-6.4,10.2-7.6,6-1.4,7.4,1.6,4.4,9.1-1.9,4.7-5.5,7-11,7-3.4,0-3.6.1-2.9,2.7.8,3.2,6.5,12,9.8,15.1l2.4,2.3,2.8-3.3c6.1-7.2,7.3-12.5,6.2-27.5-.1-1.8.3-3.3.8-3.4,2-.3,3.7,5.5,3.7,12.6,0,8.1-2.1,14-7.2,20.5-1.7,2.1-2.7,4.1-2.2,4.4.7.4,39.2.9,49,.6.9,0,1.2-3.3,1.2-13v-13h-4.7c-8.6-.1-15.6-4.6-18.8-12.3-1.3-3.2-1.8-3.6-3.5-2.7-2.7,1.5-9.7,1.2-13-.5-3.2-1.7-7-7.2-7-10.3,0-1.6,1-2.4,4.2-3.2,5.6-1.6,9.9-.6,13.4,3.1l2.9,3.1.5-3.9c.4-3,.9-3.8,2.5-3.8,1.8,0,2.1.8,2.5,7.5.6,8.2,2.8,13.1,6.9,15.8l2.4,1.6-1.7-3.1c-3-5.8-1.6-14.6,2.9-18.3,1.3-1.1,2-1,4.2.6a19.956,19.956,0,0,1,4.4,5.4l1.9,3.5v-21.1l-4.9-1.8a63.87,63.87,0,0,1-11.6-6.2c-6.5-4.4-6.9-4.5-12.1-3.8-4.9.6-5.4.9-5.4,3.1,0,3.9-3,9.4-6.3,11.3-4,2.5-9.2,3.3-11.8,2-1.8-1-2-1.7-1.4-4.8.9-4.7,3.9-9.6,6.6-10.8,1.9-.9,1.4-1.3-4.7-3.3-8.5-2.8-15.4-6.7-15.4-8.8,0-1.6,2.2-1.5,6.4.2,1.7.8,1.7.6.2-2.4L97.9-252H0Z" fill="#fff"/>
      <path id="Caminho_2" data-name="Caminho 2" d="M103-251.1a4.384,4.384,0,0,0,1.6,2.2c1.3,1,1.7,1,2.5-.2,1.4-2.3,1.1-2.9-1.6-2.9C104.1-252,103-251.6,103-251.1Z" fill="#fff"/>
      <path id="Caminho_3" data-name="Caminho 3" d="M112-249a12.6,12.6,0,0,1-2.6,4.1,3.349,3.349,0,0,0-1.4,2c0,1.4,10.5,3,17.5,2.7l6.7-.3-4.8-5.8c-4.6-5.4-5-5.7-9.5-5.7C113.7-252,113.1-251.7,112-249Z" fill="#fff"/>
      <path id="Caminho_4" data-name="Caminho 4" d="M129-251.2c0,1.2,14.1,14.6,16.9,16.1l2.3,1.3-.7-8.4c-.4-4.5-.9-8.6-1.2-9.1C145.7-252.3,129-252.2,129-251.2Z" fill="#fff"/>
      <path id="Caminho_5" data-name="Caminho 5" d="M151.7-242.3c.6,10.4,1.2,11.8,5.6,12.8l2.7.7V-252h-8.8Z" fill="#fff"/>
      <path id="Caminho_6" data-name="Caminho 6" d="M23.3-236.3c.6,3.8,3.7,7.3,6.3,7.3,3,0,.3-9.1-3.1-10.4C23.3-240.6,22.7-240.1,23.3-236.3Z" fill="#fff"/>
      <path id="Caminho_7" data-name="Caminho 7" d="M116.4-231c-2.4.9-5.4,4.7-5.4,6.7,0,2.3,5,1.4,7.5-1.3C122.8-230.2,121.6-233.1,116.4-231Z" fill="#fff"/>
      <path id="Caminho_8" data-name="Caminho 8" d="M118-209.3c.1,2.8,5.5,6.3,9.4,6.3,3.1,0,3.2-.9.5-4.4-1.6-2-2.9-2.6-6-2.6C119.8-210,118-209.7,118-209.3Z" fill="#fff"/>
      <path id="Caminho_9" data-name="Caminho 9" d="M50-206.4c0,2.5,5.6,7.4,8.4,7.4,2.3,0,2.4-.2,1.4-3C58.3-206.5,50-210.2,50-206.4Z" fill="#fff"/>
      <path id="Caminho_10" data-name="Caminho 10" d="M150.1-204.7c-1.4,3.6-1.4,5,.1,8.2,1.3,3,2.4,3.2,3.8.6a8.352,8.352,0,0,0-.9-9.2l-1.9-2.4Z" fill="#fff"/>
      <path id="Caminho_11" data-name="Caminho 11" d="M157.3-193l-2.1,4h2.4c2.1,0,2.4-.4,2.4-4a21.25,21.25,0,0,0-.2-4A20.019,20.019,0,0,0,157.3-193Z" fill="#fff"/>
      <path id="Caminho_12" data-name="Caminho 12" d="M98.5-192.5c-4,3.9-2.9,6.7,2,4.9,1.4-.6,4.5-5.3,4.5-6.9C105-196,100.6-194.7,98.5-192.5Z" fill="#fff"/>
      <path id="Caminho_13" data-name="Caminho 13" d="M28.4-182.8c1.2,6,7.6,10.5,7.6,5.4,0-3.8-1-5.6-4.1-7.1C28-186.6,27.7-186.4,28.4-182.8Z" fill="#fff"/>
      <path id="Caminho_14" data-name="Caminho 14" d="M64.2-173.4c-3.1,2.2-2.8,4.4.7,4.4,2.8,0,8.1-3.3,8.1-5.1C73-175.6,66.6-175.1,64.2-173.4Z" fill="#fff"/>
      <path id="Caminho_15" data-name="Caminho 15" d="M16.8-160.1c-3.7,3.3-3.4,4.2,1.1,4.3,3.3.1,8.1-3.4,8.1-5.9S20.2-163.2,16.8-160.1Z" fill="#fff"/>
      <path id="Caminho_16" data-name="Caminho 16" d="M48-158.1c-1.5,2.8-1.2,7.4.5,9.7,1.3,1.6,1.6,1.7,2.5.4a9.389,9.389,0,0,0,1-9C50.6-160.5,49.5-160.8,48-158.1Z" fill="#fff"/>
      <path id="Caminho_17" data-name="Caminho 17" d="M88.2-153.3,66-153l.2,64.3.3,64.2h9L76.1-52c.7-29.7,1.2-33,7-45.8a80.6,80.6,0,0,1,18.7-25.3c14.4-13.3,29.4-19.5,51.5-21.5l6.8-.6-.3-4.1-.3-4.2H135C121.5-153.5,100.5-153.4,88.2-153.3Z" fill="#fff"/>
      <path id="Caminho_18" data-name="Caminho 18" d="M56-140.5a66.3,66.3,0,0,1-10.4,4l-5.8,1.7,3.2,1.9c3.4,2.1,6,7.2,6,11.8,0,2.4-.5,3.2-2.4,3.7-3.5.8-10.5-1.4-13.2-4.3-2.1-2.3-4.4-7.9-4.4-10.9,0-.7-2.5-1.5-5.5-1.9-5-.6-5.8-.4-8.7,2a58.1,58.1,0,0,1-8.9,5.6L0-124v99H11V-48.9l5.8-.3,5.7-.3.3-10.7.3-10.7,5.7-.3,5.7-.3.3-9.8.3-9.7H62v-26c0-14.3-.3-26-.7-26A45.02,45.02,0,0,0,56-140.5Z" fill="#fff"/>
      <path id="Caminho_19" data-name="Caminho 19" d="M142-137.5c-15.9,3.3-26.8,9.2-38.5,20.9C89-102.1,82.4-86.9,81.3-65.8L80.7-55h5c6.1,0,9,2.3,5.8,4.6-1,.8-3.8,1.4-6.2,1.4H80.9l.3,12.2.3,12.3h78l.3-57.3L160-139l-5.7.1A78.614,78.614,0,0,0,142-137.5Z" fill="#fff"/>
      <path id="Caminho_20" data-name="Caminho 20" d="M34.5-128.8c1.2,3.7,4.6,6.8,7.6,6.8,2.7,0,2.8-.1,1.7-3.1a7.263,7.263,0,0,0-4.4-4.5C34.7-131.6,33.7-131.4,34.5-128.8Z" fill="#fff"/>
      <path id="Caminho_21" data-name="Caminho 21" d="M40-78.5V-71H62V-86H40Z" fill="#fff"/>
      <path id="Caminho_22" data-name="Caminho 22" d="M28-57v8H62V-65H28Z" fill="#fff"/>
      <path id="Caminho_23" data-name="Caminho 23" d="M16-34.5v9.4l3.3.6c1.7.3,12,.5,22.7.3l19.5-.3.3-9.8.3-9.7H16Z" fill="#fff"/>
    </g>
  </g>
</svg>
